<svg width="24" height="25" viewBox="0 0 24 25" fill="none" xmlns="http://www.w3.org/2000/svg">
<path d="M6 22.5C5.45 22.5 4.97917 22.3042 4.5875 21.9125C4.19583 21.5208 4 21.05 4 20.5V8.5C4 7.95 4.19583 7.47917 4.5875 7.0875C4.97917 6.69583 5.45 6.5 6 6.5H8C8 5.4 8.39167 4.45833 9.175 3.675C9.95833 2.89167 10.9 2.5 12 2.5C13.1 2.5 14.0417 2.89167 14.825 3.675C15.6083 4.45833 16 5.4 16 6.5H18C18.55 6.5 19.0208 6.69583 19.4125 7.0875C19.8042 7.47917 20 7.95 20 8.5V20.5C20 21.05 19.8042 21.5208 19.4125 21.9125C19.0208 22.3042 18.55 22.5 18 22.5H6ZM6 20.5H18V8.5H16V10.5C16 10.7833 15.9042 11.0208 15.7125 11.2125C15.5208 11.4042 15.2833 11.5 15 11.5C14.7167 11.5 14.4792 11.4042 14.2875 11.2125C14.0958 11.0208 14 10.7833 14 10.5V8.5H10V10.5C10 10.7833 9.90417 11.0208 9.7125 11.2125C9.52083 11.4042 9.28333 11.5 9 11.5C8.71667 11.5 8.47917 11.4042 8.2875 11.2125C8.09583 11.0208 8 10.7833 8 10.5V8.5H6V20.5ZM10 6.5H14C14 5.95 13.8042 5.47917 13.4125 5.0875C13.0208 4.69583 12.55 4.5 12 4.5C11.45 4.5 10.9792 4.69583 10.5875 5.0875C10.1958 5.47917 10 5.95 10 6.5Z" fill="#FCF8ED"/>
</svg>
