<svg width="27" height="28" viewBox="0 0 27 28" fill="none" xmlns="http://www.w3.org/2000/svg">
<path d="M13.1129 2.73901C16.5868 2.73901 16.9982 2.75483 18.3644 2.81812C19.6341 2.87614 20.3198 3.09765 20.7768 3.28225C21.3812 3.52486 21.818 3.82021 22.27 4.28962C22.7271 4.76429 23.0065 5.2126 23.2401 5.84022C23.4178 6.3149 23.6311 7.03218 23.687 8.34545C23.748 9.76948 23.7632 10.1967 23.7632 13.7989C23.7632 17.4065 23.748 17.8337 23.687 19.2524C23.6311 20.571 23.4178 21.283 23.2401 21.7577C23.0065 22.3853 22.722 22.8389 22.27 23.3083C21.8129 23.7829 21.3812 24.073 20.7768 24.3156C20.3198 24.5002 19.629 24.7218 18.3644 24.7798C16.9931 24.8431 16.5817 24.8589 13.1129 24.8589C9.63897 24.8589 9.22759 24.8431 7.86138 24.7798C6.59167 24.7218 5.90603 24.5002 5.44894 24.3156C4.84455 24.073 4.40777 23.7777 3.95576 23.3083C3.49866 22.8336 3.21933 22.3853 2.9857 21.7577C2.80794 21.283 2.59463 20.5657 2.53876 19.2524C2.47782 17.8284 2.46258 17.4012 2.46258 13.7989C2.46258 10.1914 2.47782 9.7642 2.53876 8.34545C2.59463 7.02691 2.80794 6.3149 2.9857 5.84022C3.21933 5.2126 3.50374 4.75902 3.95576 4.28962C4.41285 3.81494 4.84455 3.52486 5.44894 3.28225C5.90603 3.09765 6.59675 2.87614 7.86138 2.81812C9.22759 2.75483 9.63897 2.73901 13.1129 2.73901ZM13.1129 0.307617C9.5831 0.307617 9.14124 0.32344 7.75472 0.38673C6.37328 0.45002 5.42354 0.682083 4.60077 1.01436C3.74245 1.36245 3.01618 1.8213 2.29498 2.57551C1.56871 3.32444 1.12685 4.07865 0.791647 4.96471C0.471681 5.8244 0.248212 6.80539 0.187266 8.23997C0.12632 9.68509 0.111084 10.1439 0.111084 13.8095C0.111084 17.475 0.12632 17.9339 0.187266 19.3737C0.248212 20.8083 0.471681 21.7946 0.791647 22.649C1.12685 23.5403 1.56871 24.2945 2.29498 25.0435C3.01618 25.7924 3.74245 26.2565 4.59569 26.5994C5.42354 26.9316 6.3682 27.1637 7.74965 27.227C9.13617 27.2903 9.57802 27.3061 13.1078 27.3061C16.6376 27.3061 17.0795 27.2903 18.466 27.227C19.8474 27.1637 20.7972 26.9316 21.6199 26.5994C22.4732 26.2565 23.1994 25.7924 23.9206 25.0435C24.6418 24.2945 25.0888 23.5403 25.4189 22.6543C25.7389 21.7946 25.9623 20.8136 26.0233 19.379C26.0842 17.9392 26.0995 17.4803 26.0995 13.8148C26.0995 10.1492 26.0842 9.69037 26.0233 8.25052C25.9623 6.81594 25.7389 5.82967 25.4189 4.97526C25.0989 4.07865 24.6571 3.32444 23.9308 2.57551C23.2096 1.82658 22.4833 1.36245 21.6301 1.01963C20.8022 0.687357 19.8576 0.455294 18.4761 0.392004C17.0845 0.32344 16.6427 0.307617 13.1129 0.307617Z" fill="#F0E7D2"/>
<path d="M13.113 6.8739C9.42576 6.8739 6.43433 9.98039 6.43433 13.8094C6.43433 17.6385 9.42576 20.745 13.113 20.745C16.8002 20.745 19.7916 17.6385 19.7916 13.8094C19.7916 9.98039 16.8002 6.8739 13.113 6.8739ZM13.113 18.3083C10.7209 18.3083 8.78075 16.2936 8.78075 13.8094C8.78075 11.3253 10.7209 9.31057 13.113 9.31057C15.5051 9.31057 17.4452 11.3253 17.4452 13.8094C17.4452 16.2936 15.5051 18.3083 13.113 18.3083Z" fill="#F0E7D2"/>
<path d="M21.6143 6.59942C21.6143 7.4959 20.9135 8.21836 20.0553 8.21836C19.192 8.21836 18.4963 7.49063 18.4963 6.59942C18.4963 5.70293 19.1971 4.98047 20.0553 4.98047C20.9135 4.98047 21.6143 5.7082 21.6143 6.59942Z" fill="#F0E7D2"/>
</svg>
